<?xml version="1.0" encoding="UTF-8"?>
<svg xmlns="http://www.w3.org/2000/svg" width="960" height="420" viewBox="0 0 960 420">
<rect x="20" y="20" width="920" height="380" rx="12" fill="#fff" stroke="#e2e8f0"/>
<text x="480.0" y="46" text-anchor="middle" font-family="PingFang SC,Microsoft YaHei,sans-serif" font-size="22" font-weight="700" fill="#0f172a">技术栈与模块映射</text>
<rect x="40" y="72" width="880" height="332" rx="8" fill="#fff" stroke="#e2e8f0"/>
<rect x="40" y="72" width="880" height="44" fill="#2c5282"/>
<text x="120.0" y="99.0" text-anchor="middle" font-family="PingFang SC,Microsoft YaHei,sans-serif" font-size="15" font-weight="700" fill="#fff">模块</text>
<text x="370.0" y="99.0" text-anchor="middle" font-family="PingFang SC,Microsoft YaHei,sans-serif" font-size="15" font-weight="700" fill="#fff">主要代码 / 技术</text>
<text x="730.0" y="99.0" text-anchor="middle" font-family="PingFang SC,Microsoft YaHei,sans-serif" font-size="15" font-weight="700" fill="#fff">职责</text>
<rect x="40" y="116" width="880" height="48" fill="#f7fafc"/>
<line x1="200" y1="116" x2="200" y2="164" stroke="#e2e8f0"/>
<line x1="540" y1="116" x2="540" y2="164" stroke="#e2e8f0"/>
<text x="120.0" y="145.0" text-anchor="middle" font-family="PingFang SC,Microsoft YaHei,sans-serif" font-size="14" font-weight="700" fill="#1e293b">前端</text>
<text x="370.0" y="145.0" text-anchor="middle" font-family="Menlo,Consolas,monospace" font-size="13" fill="#1e3a8a">static/index.html</text>
<text x="556.0" y="145.0" font-family="PingFang SC,Microsoft YaHei,sans-serif" font-size="14" fill="#1e293b">对话、地震列表、筛选、触发数据更新</text>
<rect x="40" y="164" width="880" height="48" fill="#ffffff"/>
<line x1="200" y1="164" x2="200" y2="212" stroke="#e2e8f0"/>
<line x1="540" y1="164" x2="540" y2="212" stroke="#e2e8f0"/>
<text x="120.0" y="193.0" text-anchor="middle" font-family="PingFang SC,Microsoft YaHei,sans-serif" font-size="14" font-weight="700" fill="#1e293b">应用网关</text>
<text x="370.0" y="193.0" text-anchor="middle" font-family="PingFang SC,Microsoft YaHei,sans-serif" font-size="13" fill="#1e3a8a">app.py（Flask）</text>
<text x="556.0" y="193.0" font-family="PingFang SC,Microsoft YaHei,sans-serif" font-size="14" fill="#1e293b">路由、组装 KG/RAG 上下文、调用 LLM</text>
<rect x="40" y="212" width="880" height="48" fill="#f7fafc"/>
<line x1="200" y1="212" x2="200" y2="260" stroke="#e2e8f0"/>
<line x1="540" y1="212" x2="540" y2="260" stroke="#e2e8f0"/>
<text x="120.0" y="241.0" text-anchor="middle" font-family="PingFang SC,Microsoft YaHei,sans-serif" font-size="14" font-weight="700" fill="#1e293b">知识图谱</text>
<text x="370.0" y="241.0" text-anchor="middle" font-family="Menlo,Consolas,monospace" font-size="13" fill="#1e3a8a">kg/neo4j_kg.py + Neo4j</text>
<text x="556.0" y="241.0" font-family="PingFang SC,Microsoft YaHei,sans-serif" font-size="14" fill="#1e293b">地震事件、区域、应急主题与处置步骤</text>
<rect x="40" y="260" width="880" height="48" fill="#ffffff"/>
<line x1="200" y1="260" x2="200" y2="308" stroke="#e2e8f0"/>
<line x1="540" y1="260" x2="540" y2="308" stroke="#e2e8f0"/>
<text x="120.0" y="289.0" text-anchor="middle" font-family="PingFang SC,Microsoft YaHei,sans-serif" font-size="14" font-weight="700" fill="#1e293b">向量检索</text>
<text x="370.0" y="289.0" text-anchor="middle" font-family="Menlo,Consolas,monospace" font-size="13" fill="#1e3a8a">rag/emergency_rag.py</text>
<text x="556.0" y="289.0" font-family="PingFang SC,Microsoft YaHei,sans-serif" font-size="14" fill="#1e293b">应急知识 JSON 分块、嵌入、余弦 Top-K</text>
<rect x="40" y="308" width="880" height="48" fill="#f7fafc"/>
<line x1="200" y1="308" x2="200" y2="356" stroke="#e2e8f0"/>
<line x1="540" y1="308" x2="540" y2="356" stroke="#e2e8f0"/>
<text x="120.0" y="337.0" text-anchor="middle" font-family="PingFang SC,Microsoft YaHei,sans-serif" font-size="14" font-weight="700" fill="#1e293b">大模型</text>
<text x="370.0" y="337.0" text-anchor="middle" font-family="PingFang SC,Microsoft YaHei,sans-serif" font-size="13" fill="#1e3a8a">transformers + peft（LoRA）</text>
<text x="556.0" y="337.0" font-family="PingFang SC,Microsoft YaHei,sans-serif" font-size="14" fill="#1e293b">本地基座权重 + 微调适配器推理</text>
<rect x="40" y="356" width="880" height="48" fill="#ffffff"/>
<line x1="200" y1="356" x2="200" y2="404" stroke="#e2e8f0"/>
<line x1="540" y1="356" x2="540" y2="404" stroke="#e2e8f0"/>
<text x="120.0" y="385.0" text-anchor="middle" font-family="PingFang SC,Microsoft YaHei,sans-serif" font-size="14" font-weight="700" fill="#1e293b">配置</text>
<text x="370.0" y="385.0" text-anchor="middle" font-family="Menlo,Consolas,monospace" font-size="13" fill="#1e3a8a">config/config.py</text>
<text x="556.0" y="385.0" font-family="PingFang SC,Microsoft YaHei,sans-serif" font-size="14" fill="#1e293b">Neo4j、路径、RAG/LLM 开关与解码参数</text>
<line x1="40" y1="116" x2="920" y2="116" stroke="#e2e8f0" stroke-width="2"/>
<line x1="40" y1="164" x2="920" y2="164" stroke="#e2e8f0"/>
<line x1="40" y1="212" x2="920" y2="212" stroke="#e2e8f0"/>
<line x1="40" y1="260" x2="920" y2="260" stroke="#e2e8f0"/>
<line x1="40" y1="308" x2="920" y2="308" stroke="#e2e8f0"/>
<line x1="40" y1="356" x2="920" y2="356" stroke="#e2e8f0"/>
<line x1="40" y1="404" x2="920" y2="404" stroke="#e2e8f0"/>
</svg>